<?xml version="1.0" encoding="UTF-8" standalone="no"?>
<!-- Created with Inkscape (http://www.inkscape.org/) -->

<svg
   xmlns:a="http://ns.adobe.com/AdobeSVGViewerExtensions/3.0/"
   xmlns:svg="http://www.w3.org/2000/svg"
   xmlns="http://www.w3.org/2000/svg"
   xmlns:xlink="http://www.w3.org/1999/xlink"
   version="1.1"
   width="128"
   height="128"
   viewBox="-72 -48 20.48 20.48"
   id="svg8041">
  <defs
     id="defs8043">
    <rect
       width="24"
       height="4"
       x="-12"
       y="-2"
       id="b1" />
    <g
       id="b2">
      <rect
         width="11"
         height="4"
         x="-12"
         y="-2"
         id="rect8047" />
      <rect
         width="11"
         height="4"
         x="1"
         y="-2"
         id="rect8049" />
    </g>
    <linearGradient
       x1="24.9473"
       y1="21.0483"
       x2="24.9473"
       y2="23.099899"
       id="linearGradient4173"
       xlink:href="#XMLID_8_"
       gradientUnits="userSpaceOnUse" />
    <linearGradient
       x1="24.9473"
       y1="21.0483"
       x2="24.9473"
       y2="23.099899"
       id="XMLID_8_"
       gradientUnits="userSpaceOnUse">
      <stop
         id="stop576"
         style="stop-color:#616161;stop-opacity:1"
         offset="0" />
      <stop
         id="stop577"
         style="stop-color:#88888a;stop-opacity:1"
         offset="0.1569" />
      <stop
         id="stop578"
         style="stop-color:#ababae;stop-opacity:1"
         offset="0.32600001" />
      <stop
         id="stop579"
         style="stop-color:#c6c6ca;stop-opacity:1"
         offset="0.49630001" />
      <stop
         id="stop580"
         style="stop-color:#d9d9df;stop-opacity:1"
         offset="0.66570002" />
      <stop
         id="stop581"
         style="stop-color:#e5e5eb;stop-opacity:1"
         offset="0.83399999" />
      <stop
         id="stop582"
         style="stop-color:#e9e9ef;stop-opacity:1"
         offset="1" />
      <a:midPointStop
         id="midPointStop583"
         style="stop-color:#616161"
         offset="0" />
      <a:midPointStop
         id="midPointStop584"
         style="stop-color:#616161"
         offset="0.2954" />
      <a:midPointStop
         id="midPointStop585"
         style="stop-color:#E9E9EF"
         offset="1" />
    </linearGradient>
    <linearGradient
       x1="24.1597"
       y1="18.867701"
       x2="24.1597"
       y2="20.534201"
       id="linearGradient4175"
       xlink:href="#XMLID_9_"
       gradientUnits="userSpaceOnUse" />
    <linearGradient
       x1="24.1597"
       y1="18.867701"
       x2="24.1597"
       y2="20.534201"
       id="XMLID_9_"
       gradientUnits="userSpaceOnUse">
      <stop
         id="stop589"
         style="stop-color:#ffffff;stop-opacity:1"
         offset="0" />
      <stop
         id="stop590"
         style="stop-color:#e9e9ef;stop-opacity:1"
         offset="1" />
      <a:midPointStop
         id="midPointStop591"
         style="stop-color:#FFFFFF"
         offset="0" />
      <a:midPointStop
         id="midPointStop592"
         style="stop-color:#FFFFFF"
         offset="0.5" />
      <a:midPointStop
         id="midPointStop593"
         style="stop-color:#E9E9EF"
         offset="1" />
    </linearGradient>
    <linearGradient
       x1="311.22269"
       y1="17.458"
       x2="311.22269"
       y2="23.226101"
       id="linearGradient4177"
       xlink:href="#XMLID_10_"
       gradientUnits="userSpaceOnUse"
       gradientTransform="matrix(1,0,0.2679,1,-292.7053,0)" />
    <linearGradient
       x1="311.22269"
       y1="17.458"
       x2="311.22269"
       y2="23.226101"
       id="XMLID_10_"
       gradientUnits="userSpaceOnUse"
       gradientTransform="matrix(1,0,0.2679,1,-292.7053,0)">
      <stop
         id="stop596"
         style="stop-color:#cecedb;stop-opacity:1"
         offset="0" />
      <stop
         id="stop597"
         style="stop-color:#828282;stop-opacity:1"
         offset="0.29769999" />
      <stop
         id="stop598"
         style="stop-color:#000000;stop-opacity:1"
         offset="1" />
      <a:midPointStop
         id="midPointStop599"
         style="stop-color:#CECEDB"
         offset="0" />
      <a:midPointStop
         id="midPointStop600"
         style="stop-color:#CECEDB"
         offset="0.5" />
      <a:midPointStop
         id="midPointStop601"
         style="stop-color:#828282"
         offset="0.2977" />
      <a:midPointStop
         id="midPointStop602"
         style="stop-color:#828282"
         offset="0.5" />
      <a:midPointStop
         id="midPointStop603"
         style="stop-color:#000000"
         offset="1" />
    </linearGradient>
    <linearGradient
       x1="22.6689"
       y1="9.3192997"
       x2="23.184099"
       y2="11.2419"
       id="linearGradient4179"
       xlink:href="#XMLID_11_"
       gradientUnits="userSpaceOnUse" />
    <linearGradient
       x1="22.6689"
       y1="9.3192997"
       x2="23.184099"
       y2="11.2419"
       id="XMLID_11_"
       gradientUnits="userSpaceOnUse">
      <stop
         id="stop607"
         style="stop-color:#ffffff;stop-opacity:1"
         offset="0" />
      <stop
         id="stop608"
         style="stop-color:#cecedb;stop-opacity:1"
         offset="1" />
      <a:midPointStop
         id="midPointStop609"
         style="stop-color:#FFFFFF"
         offset="0" />
      <a:midPointStop
         id="midPointStop610"
         style="stop-color:#FFFFFF"
         offset="0.5" />
      <a:midPointStop
         id="midPointStop611"
         style="stop-color:#CECEDB"
         offset="1" />
    </linearGradient>
    <linearGradient
       x1="22.366699"
       y1="7.8495998"
       x2="24.2355"
       y2="14.8243"
       id="linearGradient4181"
       xlink:href="#XMLID_12_"
       gradientUnits="userSpaceOnUse" />
    <linearGradient
       x1="22.366699"
       y1="7.8495998"
       x2="24.2355"
       y2="14.8243"
       id="XMLID_12_"
       gradientUnits="userSpaceOnUse">
      <stop
         id="stop614"
         style="stop-color:#cecedb;stop-opacity:1"
         offset="0" />
      <stop
         id="stop615"
         style="stop-color:#cbcbd7;stop-opacity:1"
         offset="0.0054" />
      <stop
         id="stop616"
         style="stop-color:#a5a5ad;stop-opacity:1"
         offset="0.0705" />
      <stop
         id="stop617"
         style="stop-color:#87878c;stop-opacity:1"
         offset="0.1338" />
      <stop
         id="stop618"
         style="stop-color:#727274;stop-opacity:1"
         offset="0.19410001" />
      <stop
         id="stop619"
         style="stop-color:#656566;stop-opacity:1"
         offset="0.2502" />
      <stop
         id="stop620"
         style="stop-color:#616161;stop-opacity:1"
         offset="0.29769999" />
      <stop
         id="stop621"
         style="stop-color:#000000;stop-opacity:1"
         offset="1" />
      <a:midPointStop
         id="midPointStop622"
         style="stop-color:#CECEDB"
         offset="0" />
      <a:midPointStop
         id="midPointStop623"
         style="stop-color:#CECEDB"
         offset="0.3269" />
      <a:midPointStop
         id="midPointStop624"
         style="stop-color:#616161"
         offset="0.2977" />
      <a:midPointStop
         id="midPointStop625"
         style="stop-color:#616161"
         offset="0.5" />
      <a:midPointStop
         id="midPointStop626"
         style="stop-color:#000000"
         offset="1" />
    </linearGradient>
    <linearGradient
       x1="24.9473"
       y1="21.0483"
       x2="24.9473"
       y2="23.099899"
       id="linearGradient11000"
       xlink:href="#XMLID_8_"
       gradientUnits="userSpaceOnUse" />
    <linearGradient
       x1="24.1597"
       y1="18.867701"
       x2="24.1597"
       y2="20.534201"
       id="linearGradient11002"
       xlink:href="#XMLID_9_"
       gradientUnits="userSpaceOnUse" />
    <linearGradient
       x1="311.22269"
       y1="17.458"
       x2="311.22269"
       y2="23.226101"
       id="linearGradient11004"
       xlink:href="#XMLID_10_"
       gradientUnits="userSpaceOnUse"
       gradientTransform="matrix(1,0,0.2679,1,-292.7053,0)" />
    <linearGradient
       x1="22.6689"
       y1="9.3192997"
       x2="23.184099"
       y2="11.2419"
       id="linearGradient11006"
       xlink:href="#XMLID_11_"
       gradientUnits="userSpaceOnUse" />
    <linearGradient
       x1="22.366699"
       y1="7.8495998"
       x2="24.2355"
       y2="14.8243"
       id="linearGradient11008"
       xlink:href="#XMLID_12_"
       gradientUnits="userSpaceOnUse" />
  </defs>
  <g
     transform="translate(17.530287,2.8442848)"
     id="g10928">
    <g
       transform="matrix(0.34264114,0,0,0.34191797,-140.75009,-67.078051)"
       id="g4035">
      <g
         transform="matrix(1.25,0,0,1.25,149.48527,47.375948)"
         id="Layer_3"
         style="overflow:visible">
        <path
           d="M 44.5,17.527 H 44.244 10.604 L 43.339,8.756 C 43.527,8.705 43.685,8.585 43.782,8.415 43.879,8.246 43.905,8.05 43.854,7.861 L 42.774,3.829 C 42.726,3.644 42.6,3.481 42.433,3.385 42.264,3.288 42.067,3.262 41.879,3.313 L 41.633,3.38 c 0,0 0.041,0.021 0.051,0.027 -0.27,0.034 -0.743,0.159 -1.664,0.406 L 4.088,13.439 C 3.9,13.489 3.743,13.61 3.645,13.778 3.58,13.892 3.546,14.016 3.546,14.143 c 0,0.064 0.008,0.128 0.025,0.19 l 1.073,4.002 v 4.095 c 0,0.402 0.327,0.729 0.729,0.729 h 1.524 v 21.457 c 0,0.366 0.273,0.678 0.636,0.725 l 0.22,0.027 c 0.238,0.029 0.863,0.096 1.593,0.096 h 32.758 c 1.35,0 2.447,-1.114 2.447,-2.484 V 23.155 c 0.378,-0.027 0.68,-0.34 0.68,-0.724 v -4.174 c 0,-0.402 -0.328,-0.73 -0.731,-0.73 z"
           id="path551"
           style="opacity:0.2" />
        <path
           d="M 44.112,17.139 H 43.855 10.215 L 42.95,8.367 C 43.138,8.317 43.296,8.196 43.393,8.026 43.49,7.858 43.516,7.661 43.466,7.472 L 42.386,3.44 C 42.337,3.255 42.213,3.093 42.045,2.996 41.876,2.899 41.68,2.873 41.491,2.924 L 41.243,2.99 c 0,0 0.042,0.021 0.052,0.026 -0.271,0.035 -0.743,0.159 -1.664,0.406 L 3.699,13.051 c -0.188,0.05 -0.345,0.171 -0.443,0.339 -0.065,0.114 -0.098,0.239 -0.098,0.365 0,0.063 0.008,0.127 0.025,0.19 l 1.073,4.003 v 4.093 c 0,0.403 0.328,0.73 0.73,0.73 H 6.51 v 21.457 c 0,0.366 0.273,0.677 0.636,0.725 l 0.219,0.027 c 0.238,0.029 0.863,0.096 1.593,0.096 h 32.757 c 1.351,0 2.448,-1.115 2.448,-2.484 V 22.767 c 0.378,-0.027 0.679,-0.34 0.679,-0.725 v -4.173 c 0,-0.403 -0.327,-0.73 -0.73,-0.73 z"
           id="path552"
           style="opacity:0.2" />
        <path
           d="M 43.723,16.75 H 43.467 9.826 L 42.561,7.979 C 42.749,7.928 42.907,7.807 43.004,7.638 43.101,7.469 43.127,7.273 43.076,7.084 L 41.996,3.052 C 41.947,2.866 41.822,2.704 41.655,2.608 41.486,2.511 41.29,2.485 41.101,2.536 l -0.248,0.067 c 0,0 0.042,0.021 0.052,0.026 -0.271,0.034 -0.743,0.159 -1.664,0.406 l -35.93,9.627 c -0.188,0.05 -0.345,0.171 -0.443,0.339 -0.065,0.114 -0.098,0.239 -0.098,0.365 0,0.063 0.008,0.128 0.025,0.19 l 1.073,4.002 v 4.094 c 0,0.402 0.328,0.73 0.73,0.73 H 6.122 V 43.84 c 0,0.366 0.273,0.677 0.636,0.724 l 0.22,0.028 c 0.238,0.029 0.863,0.095 1.592,0.095 h 32.757 c 1.351,0 2.448,-1.114 2.448,-2.484 V 22.377 c 0.378,-0.027 0.679,-0.339 0.679,-0.725 V 17.479 C 44.453,17.077 44.125,16.75 43.723,16.75 z"
           id="path553" />
        <path
           d="m 8.569,18.637 c -1.135,0 -2.059,0.94 -2.059,2.095 V 43.84 c 0,0.172 0.127,0.316 0.297,0.339 l 0.219,0.028 c 0.243,0.029 0.84,0.091 1.542,0.091 h 32.757 c 1.136,0 2.06,-0.94 2.06,-2.096 v -21.47 c 0,-1.155 -0.924,-2.095 -2.06,-2.095 H 8.569 z"
           id="path554" />
        <path
           d="m 7.102,43.614 c 0,0 0.657,0.086 1.467,0.086 h 32.757 c 0.81,0 1.467,-0.671 1.467,-1.498 v -21.47 c 0,-0.828 -0.657,-1.499 -1.467,-1.499 H 8.569 c -0.81,0 -1.467,0.671 -1.467,1.499 v 22.882 z"
           id="path555"
           style="fill:#ffffff" />
        <linearGradient
           x1="24.9478"
           y1="49.256802"
           x2="24.9478"
           y2="21.9475"
           id="linearGradient3764"
           gradientUnits="userSpaceOnUse">
          <stop
             id="stop3766"
             style="stop-color:#ffffff;stop-opacity:1"
             offset="0.0056" />
          <stop
             id="stop3768"
             style="stop-color:#f8f8fa;stop-opacity:1"
             offset="0.045" />
          <stop
             id="stop3770"
             style="stop-color:#e4e4ec;stop-opacity:1"
             offset="0.1027" />
          <stop
             id="stop3772"
             style="stop-color:#c4c4d4;stop-opacity:1"
             offset="0.17129999" />
          <stop
             id="stop3774"
             style="stop-color:#bdbdcf;stop-opacity:1"
             offset="0.18539999" />
          <stop
             id="stop3776"
             style="stop-color:#bebed0;stop-opacity:1"
             offset="0.18960001" />
          <stop
             id="stop3778"
             style="stop-color:#cacad8;stop-opacity:1"
             offset="0.27509999" />
          <stop
             id="stop3780"
             style="stop-color:#cecedb;stop-opacity:1"
             offset="0.35949999" />
          <stop
             id="stop3782"
             style="stop-color:#e9e9ef;stop-opacity:1"
             offset="0.78649998" />
          <a:midPointStop
             id="midPointStop566"
             style="stop-color:#FFFFFF"
             offset="0.0056" />
          <a:midPointStop
             id="midPointStop567"
             style="stop-color:#FFFFFF"
             offset="0.625" />
          <a:midPointStop
             id="midPointStop568"
             style="stop-color:#BDBDCF"
             offset="0.1854" />
          <a:midPointStop
             id="midPointStop569"
             style="stop-color:#BDBDCF"
             offset="0.2954" />
          <a:midPointStop
             id="midPointStop570"
             style="stop-color:#CECEDB"
             offset="0.3595" />
          <a:midPointStop
             id="midPointStop571"
             style="stop-color:#CECEDB"
             offset="0.5" />
          <a:midPointStop
             id="midPointStop572"
             style="stop-color:#E9E9EF"
             offset="0.7865" />
        </linearGradient>
        <path
           d="M 41.326,19.233 H 8.569 c -0.81,0 -1.467,0.671 -1.467,1.499 v 22.882 c 0,0 0.657,0.086 1.467,0.086 h 32.757 c 0.81,0 1.467,-0.671 1.467,-1.498 v -21.47 c 0,-0.828 -0.657,-1.499 -1.467,-1.499 z m 0.444,22.969 c 0,0.262 -0.199,0.474 -0.443,0.474 H 8.569 c -0.157,0 -0.303,-0.004 -0.443,-0.01 0,-1.741 0,-21.934 0,-21.934 0,-0.261 0.199,-0.475 0.443,-0.475 h 32.757 c 0.244,0 0.443,0.213 0.443,0.475 v 21.47 z"
           id="path574"
           style="opacity:0.5;fill:#ffffff" />
        <linearGradient
           x1="24.9473"
           y1="21.0483"
           x2="24.9473"
           y2="23.099899"
           id="linearGradient3786"
           gradientUnits="userSpaceOnUse">
          <stop
             id="stop3788"
             style="stop-color:#616161;stop-opacity:1"
             offset="0" />
          <stop
             id="stop3790"
             style="stop-color:#88888a;stop-opacity:1"
             offset="0.1569" />
          <stop
             id="stop3792"
             style="stop-color:#ababae;stop-opacity:1"
             offset="0.32600001" />
          <stop
             id="stop3794"
             style="stop-color:#c6c6ca;stop-opacity:1"
             offset="0.49630001" />
          <stop
             id="stop3796"
             style="stop-color:#d9d9df;stop-opacity:1"
             offset="0.66570002" />
          <stop
             id="stop3798"
             style="stop-color:#e5e5eb;stop-opacity:1"
             offset="0.83399999" />
          <stop
             id="stop3800"
             style="stop-color:#e9e9ef;stop-opacity:1"
             offset="1" />
          <a:midPointStop
             id="midPointStop583"
             style="stop-color:#616161"
             offset="0" />
          <a:midPointStop
             id="midPointStop584"
             style="stop-color:#616161"
             offset="0.2954" />
          <a:midPointStop
             id="midPointStop585"
             style="stop-color:#E9E9EF"
             offset="1" />
        </linearGradient>
        <path
           d="m 7.102,23.682 c 0,0 0.657,0.016 1.467,0.016 h 32.757 c 0.81,0 1.467,-0.123 1.467,-0.274 v -3.917 c 0,-0.15 -0.657,-0.273 -1.467,-0.273 H 8.569 c -0.81,0 -1.467,0.123 -1.467,0.273 v 4.175 z"
           id="path586"
           style="opacity:0.8;fill:url(#linearGradient11000)" />
        <path
           d="M 43.467,17.139 H 4.597 c -0.188,0 -0.341,0.153 -0.341,0.341 v 4.173 c 0,0.188 0.153,0.341 0.341,0.341 h 39.125 c 0.189,0 0.342,-0.153 0.342,-0.341 V 17.48 c 0,-0.188 -0.152,-0.341 -0.342,-0.341 h -0.255 z"
           id="path587" />
        <linearGradient
           x1="24.1597"
           y1="18.867701"
           x2="24.1597"
           y2="20.534201"
           id="linearGradient3804"
           gradientUnits="userSpaceOnUse">
          <stop
             id="stop3806"
             style="stop-color:#ffffff;stop-opacity:1"
             offset="0" />
          <stop
             id="stop3808"
             style="stop-color:#e9e9ef;stop-opacity:1"
             offset="1" />
          <a:midPointStop
             id="midPointStop591"
             style="stop-color:#FFFFFF"
             offset="0" />
          <a:midPointStop
             id="midPointStop592"
             style="stop-color:#FFFFFF"
             offset="0.5" />
          <a:midPointStop
             id="midPointStop593"
             style="stop-color:#E9E9EF"
             offset="1" />
        </linearGradient>
        <rect
           width="38.612999"
           height="3.661"
           x="4.8540001"
           y="17.735001"
           id="rect594"
           style="fill:url(#linearGradient11002)" />
        <linearGradient
           x1="311.22269"
           y1="17.458"
           x2="311.22269"
           y2="23.226101"
           id="linearGradient3811"
           gradientUnits="userSpaceOnUse"
           gradientTransform="matrix(1,0,0.2679,1,-292.7053,0)">
          <stop
             id="stop3813"
             style="stop-color:#cecedb;stop-opacity:1"
             offset="0" />
          <stop
             id="stop3815"
             style="stop-color:#828282;stop-opacity:1"
             offset="0.29769999" />
          <stop
             id="stop3817"
             style="stop-color:#000000;stop-opacity:1"
             offset="1" />
          <a:midPointStop
             id="midPointStop599"
             style="stop-color:#CECEDB"
             offset="0" />
          <a:midPointStop
             id="midPointStop600"
             style="stop-color:#CECEDB"
             offset="0.5" />
          <a:midPointStop
             id="midPointStop601"
             style="stop-color:#828282"
             offset="0.2977" />
          <a:midPointStop
             id="midPointStop602"
             style="stop-color:#828282"
             offset="0.5" />
          <a:midPointStop
             id="midPointStop603"
             style="stop-color:#000000"
             offset="1" />
        </linearGradient>
        <path
           d="m 7.762,21.396 h 3.662 L 9.797,17.735 H 6.136 l 1.626,3.661 m 17.013,-3.661 h -3.66 l 1.626,3.661 h 3.661 l -1.627,-3.661 m -7.489,0 h -3.662 l 1.627,3.661 h 3.662 l -1.627,-3.661 m 22.47,0 h -3.663 l 1.628,3.661 h 3.661 l -1.626,-3.661 m -7.49,0 h -3.662 l 1.627,3.661 h 3.664 l -1.629,-3.661 z"
           id="path604"
           style="fill:url(#linearGradient11004)" />
        <path
           d="m 41.203,2.911 -0.248,0.067 c 0.001,0 0.001,0 0.001,0 L 3.411,13.038 c -0.088,0.023 -0.162,0.081 -0.208,0.159 -0.046,0.078 -0.058,0.171 -0.034,0.258 l 1.081,4.033 c 0.049,0.182 0.236,0.29 0.418,0.241 L 42.461,7.603 c 0.182,-0.049 0.29,-0.236 0.24,-0.418 L 41.622,3.153 C 41.599,3.066 41.541,2.991 41.463,2.945 41.384,2.9 41.291,2.888 41.203,2.911 z"
           id="path605" />
        <linearGradient
           x1="22.6689"
           y1="9.3192997"
           x2="23.184099"
           y2="11.2419"
           id="linearGradient3821"
           gradientUnits="userSpaceOnUse">
          <stop
             id="stop3823"
             style="stop-color:#ffffff;stop-opacity:1"
             offset="0" />
          <stop
             id="stop3825"
             style="stop-color:#cecedb;stop-opacity:1"
             offset="1" />
          <a:midPointStop
             id="midPointStop609"
             style="stop-color:#FFFFFF"
             offset="0" />
          <a:midPointStop
             id="midPointStop610"
             style="stop-color:#FFFFFF"
             offset="0.5" />
          <a:midPointStop
             id="midPointStop611"
             style="stop-color:#CECEDB"
             offset="1" />
        </linearGradient>
        <polygon
           points="41.111,3.555 3.814,13.548 4.761,17.085 42.06,7.091 "
           id="polygon612"
           style="fill:url(#linearGradient11006)" />
        <linearGradient
           x1="22.366699"
           y1="7.8495998"
           x2="24.2355"
           y2="14.8243"
           id="linearGradient3828"
           gradientUnits="userSpaceOnUse">
          <stop
             id="stop3830"
             style="stop-color:#cecedb;stop-opacity:1"
             offset="0" />
          <stop
             id="stop3832"
             style="stop-color:#cbcbd7;stop-opacity:1"
             offset="0.0054" />
          <stop
             id="stop3834"
             style="stop-color:#a5a5ad;stop-opacity:1"
             offset="0.0705" />
          <stop
             id="stop3836"
             style="stop-color:#87878c;stop-opacity:1"
             offset="0.1338" />
          <stop
             id="stop3838"
             style="stop-color:#727274;stop-opacity:1"
             offset="0.19410001" />
          <stop
             id="stop3840"
             style="stop-color:#656566;stop-opacity:1"
             offset="0.2502" />
          <stop
             id="stop3842"
             style="stop-color:#616161;stop-opacity:1"
             offset="0.29769999" />
          <stop
             id="stop3844"
             style="stop-color:#000000;stop-opacity:1"
             offset="1" />
          <a:midPointStop
             id="midPointStop622"
             style="stop-color:#CECEDB"
             offset="0" />
          <a:midPointStop
             id="midPointStop623"
             style="stop-color:#CECEDB"
             offset="0.3269" />
          <a:midPointStop
             id="midPointStop624"
             style="stop-color:#616161"
             offset="0.2977" />
          <a:midPointStop
             id="midPointStop625"
             style="stop-color:#616161"
             offset="0.5" />
          <a:midPointStop
             id="midPointStop626"
             style="stop-color:#000000"
             offset="1" />
        </linearGradient>
        <path
           d="M 7.57,16.333 11.108,15.386 9.537,12.015 6,12.963 l 1.57,3.37 m 16.434,-8.194 -3.537,0.948 1.571,3.37 3.538,-0.948 -1.572,-3.37 m -7.234,1.938 -3.537,0.948 1.572,3.37 3.536,-0.949 -1.571,-3.369 m 21.703,-5.815 -3.535,0.947 1.571,3.37 3.537,-0.947 -1.573,-3.37 M 31.239,6.201 27.701,7.147 29.273,10.518 32.81,9.57 31.239,6.201 z"
           id="path627"
           style="fill:url(#linearGradient11008)" />
        <polyline
           id="_x3C_Slice_x3E_"
           style="fill:none"
           points="0,48 0,0 48,0 48,48 " />
      </g>
    </g>
    <path
       d="m -73.229658,-32.22295 0,-0.01954 0.80744,0 c 0.444092,0 0.807439,3.2e-4 0.807439,6.4e-4 0,0.0011 -0.04157,0.01418 -0.0622,0.01951 -0.03385,0.0087 -0.06847,0.01454 -0.104551,0.01758 -0.01066,9.6e-4 -0.261464,0.0014 -0.732163,0.0014 l -0.715962,1.4e-5 0,-0.01954 z"
       id="path4109"
       style="fill:#ff0000" />
    <path
       d="m -77.547101,-32.223475 0,-0.01617 2.157672,0 2.157671,0 0,0.01617 0,0.01617 -2.157671,0 -2.157672,0 0,-0.01617 z"
       id="path4111"
       style="fill:#ff0000" />
    <rect
       width="15.338188"
       height="9.3008394"
       x="-86.519615"
       y="-41.481739"
       id="rect4185"
       style="fill:#ffffff" />
    <use
       transform="matrix(0.05346325,0.08019513,-0.08019513,0.05346325,-75.843568,-38.882896)"
       id="use8055"
       x="0"
       y="0"
       width="144"
       height="96"
       xlink:href="#b2" />
    <use
       transform="matrix(0.05346325,0.08019513,-0.08019513,0.05346325,-75.362399,-39.203657)"
       id="use8057"
       x="0"
       y="0"
       width="144"
       height="96"
       xlink:href="#b1" />
    <use
       transform="matrix(0.05346325,0.08019513,-0.08019513,0.05346325,-74.881227,-39.524457)"
       id="use8059"
       x="0"
       y="0"
       width="144"
       height="96"
       xlink:href="#b2" />
    <use
       transform="matrix(0.05346325,0.08019513,-0.08019513,0.05346325,-81.938402,-34.819689)"
       id="use8061"
       x="0"
       y="0"
       width="144"
       height="96"
       xlink:href="#b1" />
    <use
       transform="matrix(0.05346325,0.08019513,-0.08019513,0.05346325,-82.419571,-34.498889)"
       id="use8063"
       x="0"
       y="0"
       width="144"
       height="96"
       xlink:href="#b2" />
    <use
       transform="matrix(0.05346325,0.08019513,-0.08019513,0.05346325,-82.900744,-34.178128)"
       id="use8065"
       x="0"
       y="0"
       width="144"
       height="96"
       xlink:href="#b1" />
    <use
       transform="matrix(0.05346325,-0.08019513,0.08019513,0.05346325,-81.938402,-38.882896)"
       id="use8069"
       x="0"
       y="0"
       width="144"
       height="96"
       xlink:href="#b1" />
    <use
       transform="matrix(0.05346325,-0.08019513,0.08019513,0.05346325,-82.419571,-39.203657)"
       id="use8071"
       x="0"
       y="0"
       width="144"
       height="96"
       xlink:href="#b1" />
    <use
       transform="matrix(0.05346325,-0.08019513,0.08019513,0.05346325,-82.900744,-39.524457)"
       id="use8073"
       x="0"
       y="0"
       width="144"
       height="96"
       xlink:href="#b1" />
    <use
       transform="matrix(0.05346325,-0.08019513,0.08019513,0.05346325,-75.843568,-34.819689)"
       id="use8075"
       x="0"
       y="0"
       width="144"
       height="96"
       xlink:href="#b2" />
    <use
       transform="matrix(0.05346325,-0.08019513,0.08019513,0.05346325,-75.362399,-34.498889)"
       id="use8077"
       x="0"
       y="0"
       width="144"
       height="96"
       xlink:href="#b2" />
    <use
       transform="matrix(0.05346325,-0.08019513,0.08019513,0.05346325,-74.881227,-34.178128)"
       id="use8079"
       x="0"
       y="0"
       width="144"
       height="96"
       xlink:href="#b2" />
    <path
       d="m -76.966302,-35.56817 a 2.3131812,2.3131812 0 0 0 -3.849366,-2.566244 1.7348859,1.7348859 0 1 0 2.887024,1.924683"
       id="path8081"
       style="fill:#c60c30" />
    <path
       d="m -80.815668,-38.134414 a 1.1565906,1.1565906 0 0 0 1.924683,1.283122 1.1565906,1.1565906 0 0 1 1.924683,1.283122 2.3131812,2.3131812 0 0 1 -3.849366,-2.566244"
       id="path8083"
       style="fill:#003478" />
  </g>
</svg>
